<svg class="tabs-list__icon" width="60" height="60" viewBox="0 0 60 60" fill="none" xmlns="http://www.w3.org/2000/svg">
                      <g clip-path="url(#clip0)">
                        <path d="M27.9103 35.7782V35.6782H27.8103H23.3457C22.9613 35.6782 22.6063 35.4723 22.4154 35.1388C22.2245 34.8051 22.2268 34.3949 22.4214 34.0635L30.0921 21.0022C30.3372 20.585 30.831 20.3838 31.2976 20.5108L31.2977 20.5108C31.7645 20.6377 32.0883 21.0614 32.0883 21.545V29.5243V29.6243H32.1883H36.6528C37.0372 29.6243 37.3922 29.8301 37.5831 30.1637C37.774 30.4974 37.7716 30.9076 37.577 31.239L29.9064 44.3004C29.7105 44.6339 29.3553 44.8296 28.9823 44.8296C28.8889 44.8296 28.7945 44.8173 28.7009 44.7918C28.2341 44.6649 27.9103 44.2412 27.9103 43.7576V35.7782ZM29.9445 25.8545V25.4867L29.7583 25.8038L25.3067 33.3838L25.2182 33.5344H25.3929H28.9822C29.574 33.5344 30.054 34.0143 30.054 34.6063V39.4481V39.8159L30.2403 39.4988L34.6919 31.9187L34.7803 31.7681H34.6056H31.0164C30.4244 31.7681 29.9445 31.2882 29.9445 30.6962V25.8545Z" fill="#4414DA" stroke="#E8E8E8" stroke-width="0.2"></path>
                        <path d="M45.2495 33.8234V33.7234H45.1495H43.9082C43.3162 33.7234 42.8363 33.2435 42.8363 32.6515C42.8363 32.0595 43.3163 31.5796 43.9082 31.5796H45.1495H45.2495V31.4796V30.2383C45.2495 29.6463 45.7294 29.1664 46.3213 29.1664C46.9132 29.1664 47.3932 29.6463 47.3932 30.2383V31.4796V31.5796H47.4932H48.7346C49.3265 31.5796 49.8064 32.0595 49.8064 32.6515C49.8064 33.2435 49.3265 33.7234 48.7346 33.7234H47.4932H47.3932V33.8234V35.0646C47.3932 35.6566 46.9132 36.1365 46.3213 36.1365C45.7294 36.1365 45.2495 35.6566 45.2495 35.0646V33.8234Z" fill="#333333" stroke="#E8E8E8" stroke-width="0.2"></path>
                        <path d="M16.092 33.7232H11.2656C10.6736 33.7232 10.1938 33.2434 10.1938 32.6514C10.1938 32.0594 10.6737 31.5795 11.2656 31.5795H16.092C16.684 31.5795 17.1639 32.0594 17.1639 32.6514C17.1639 33.2434 16.684 33.7232 16.092 33.7232Z" fill="#333333" stroke="#E8E8E8" stroke-width="0.2"></path>
                        <path d="M53.231 9.45668V9.55668H53.331H58.8281C59.42 9.55668 59.9 10.0366 59.9 10.6286V16.7549C59.9 17.3469 59.42 17.8268 58.8281 17.8268H56.5145H56.4145V17.9268V47.3757V47.4757H56.5145H58.8281C59.42 47.4757 59.9 47.9556 59.9 48.5476V54.6741C59.9 55.2661 59.42 55.7459 58.8281 55.7459H1.17188C0.579877 55.7459 0.1 55.2661 0.1 54.6741V48.5476C0.1 47.9556 0.579877 47.4757 1.17188 47.4757H3.48551H3.58551V47.3757V17.9268V17.8268H3.48551H1.17188C0.579877 17.8268 0.1 17.3469 0.1 16.7549V10.6286C0.1 10.0366 0.579877 9.55668 1.17188 9.55668H6.66902H6.76902V9.45668V5.32617C6.76902 4.73417 7.2489 4.2543 7.8409 4.2543H19.5162C20.1081 4.2543 20.588 4.73418 20.588 5.32617V9.45668V9.55668H20.688H24.7024C25.2944 9.55668 25.7743 10.0366 25.7743 10.6286C25.7743 11.2206 25.2944 11.7004 24.7024 11.7004H2.34375H2.24375V11.8004V15.583V15.683H2.34375H57.6562H57.7562V15.583V11.8004V11.7004H57.6562H35.2976C34.7057 11.7004 34.2257 11.2205 34.2257 10.6286C34.2257 10.0366 34.7057 9.55668 35.2976 9.55668H39.312H39.412V9.45668V5.32617C39.412 4.73418 39.8919 4.2543 40.4838 4.2543H52.1591C52.7511 4.2543 53.231 4.73417 53.231 5.32617V9.45668ZM41.5557 9.45668V9.55668H41.6557H50.9872H51.0872V9.45668V6.49805V6.39805H50.9872H41.6557H41.5557V6.49805V9.45668ZM9.01277 6.39805H8.91277V6.49805V9.45668V9.55668H9.01277H18.3443H18.4443V9.45668V6.49805V6.39805H18.3443H9.01277ZM57.6562 53.6022H57.7562V53.5022V49.7195V49.6195H57.6562H2.34375H2.24375V49.7195V53.5022V53.6022H2.34375H57.6562ZM54.1707 47.4757H54.2707V47.3757V17.9268V17.8268H54.1707H5.82926H5.72926V17.9268V47.3757V47.4757H5.82926H54.1707Z" fill="#333333" stroke="#E8E8E8" stroke-width="0.2"></path>
                        <path d="M29.0314 11.0382L29.0314 11.0382C29.2008 11.4448 29.6148 11.7155 30.0554 11.7002C30.4963 11.6849 30.8938 11.3904 31.0357 10.9731L31.0357 10.9731C31.1796 10.5504 31.0378 10.0656 30.6871 9.78942M29.0314 11.0382L29.455 9.71841C29.8367 9.48228 30.3347 9.51197 30.6871 9.78942M29.0314 11.0382C28.8328 10.5614 29.0161 9.99023 29.455 9.71843L29.0314 11.0382ZM30.6871 9.78942L30.749 9.71085M30.6871 9.78942L30.749 9.71085M30.749 9.71085C31.1332 10.0134 31.2878 10.5428 31.1304 11.0053L29.4024 9.63339C29.82 9.37499 30.3638 9.40757 30.749 9.71085Z" fill="#333333" stroke="#E8E8E8" stroke-width="0.2"></path>
                        </g>
                        <defs>
                        <clipPath id="clip0">
                        <rect width="60" height="60" fill="white"></rect>
                        </clipPath>
                        </defs>
                    </svg>