<svg class="tabs-list__icon" width="60" height="60" viewBox="0 0 60 60" fill="none" xmlns="http://www.w3.org/2000/svg">
                      <g clip-path="url(#clip0)">
                        <path d="M59.0742 12.1066H54.1889C54.3308 11.9075 54.4595 11.6983 54.5721 11.479C55.2184 10.2165 55.3059 8.72964 54.8119 7.39936L53.3315 3.42045C52.838 2.09156 51.8012 1.02313 50.4879 0.489374C49.1732 -0.0448401 47.6841 -0.00226786 46.4019 0.606562L34.6858 6.17072C34.1067 5.7569 33.3986 5.51245 32.6341 5.51245H27.3661C26.6017 5.51245 25.8931 5.75736 25.314 6.17118L13.5984 0.606104C12.3162 -0.00226781 10.8271 -0.0448401 9.51237 0.489374C8.19904 1.02313 7.1622 2.09156 6.66873 3.42L5.18831 7.39982C4.69439 8.72964 4.78182 10.2165 5.42864 11.479C5.54079 11.6983 5.66988 11.9079 5.81179 12.1066H0.92606C0.414736 12.1066 0 12.5209 0 13.0326V19.6991C0 20.2104 0.414736 20.6252 0.92606 20.6252C1.43738 20.6252 1.85212 20.2104 1.85212 19.6991V13.9582H8.28418C8.38718 13.9944 8.49155 14.0278 8.59729 14.0571L16.3715 16.1972C14.6439 18.8445 13.12 21.629 11.8154 24.5144H1.85212V23.4029C1.85212 22.8916 1.43738 22.4773 0.92606 22.4773C0.414736 22.4773 0 22.8916 0 23.4029V25.4404C0 25.9517 0.414736 26.3665 0.92606 26.3665H4.22838V59.1504C4.22838 59.6622 4.64312 60.0764 5.15444 60.0764H54.8458C55.3571 60.0764 55.7719 59.6622 55.7719 59.1504V53.7734C55.7719 53.2621 55.3571 52.8474 54.8458 52.8474C54.334 52.8474 53.9197 53.2621 53.9197 53.7734V58.2248H35.5556V26.9359C38.1786 31.9041 39.9542 37.3062 40.7713 42.8877C40.8254 43.2572 41.0964 43.5579 41.4585 43.6504C41.5344 43.6701 41.6113 43.6792 41.6878 43.6792C41.9739 43.6792 42.2495 43.5465 42.4271 43.3107C43.7583 41.5447 44.9961 39.6541 46.1135 37.6802C47.9848 38.9546 49.8017 40.3755 51.5256 41.9136C51.8163 42.1727 52.2384 42.2226 52.5812 42.0377C52.9241 41.8532 53.115 41.4737 53.0582 41.0883C52.3189 36.045 50.9406 31.0856 48.9869 26.3665H53.9193V50.0692C53.9193 50.581 54.334 50.9953 54.8453 50.9953C55.3571 50.9953 55.7714 50.581 55.7714 50.0692V26.3665H59.0742C59.5855 26.3665 59.9998 25.9517 59.9998 25.4404V13.0326C60.0002 12.5209 59.586 12.1066 59.0742 12.1066ZM47.1961 2.27924C48.0224 1.88739 48.9434 1.86084 49.7907 2.20508C50.6367 2.54887 51.2775 3.20942 51.5957 4.06591L53.0756 8.04436C53.3942 8.9013 53.3398 9.82141 52.9232 10.6349C52.5071 11.4479 51.7925 12.0292 50.9118 12.2714L36.1713 16.3295V11.8791C39.4846 9.85025 47.7445 5.6658 49.8003 8.56758C50.0956 8.98461 50.6733 9.08395 51.0908 8.78823C51.5082 8.49251 51.6071 7.91435 51.3114 7.49733C49.7248 5.25747 46.3813 5.14853 41.3729 7.17414C39.3097 8.00819 37.4049 9.02627 36.1713 9.7326V9.04916C36.1713 8.55339 36.0683 8.08098 35.8833 7.65205L47.1961 2.27924ZM27.3661 7.36412H32.6341C33.5634 7.36412 34.3191 8.12035 34.3191 9.04916V16.7035C34.3191 17.6327 33.5634 18.3885 32.6341 18.3885H27.3661C26.4369 18.3885 25.6811 17.6327 25.6811 16.7035V9.04916C25.6811 8.11989 26.4369 7.36412 27.3661 7.36412ZM25.8097 24.5139C26.6955 23.0422 27.6596 21.6158 28.6969 20.2406H31.3025C32.3402 21.6158 33.3043 23.0422 34.1896 24.5139H25.8097ZM7.07706 10.6349C6.66049 9.82141 6.60601 8.9013 6.92416 8.04482L8.40503 4.06545C8.72272 3.20942 9.3636 2.54887 10.2095 2.20508C11.0564 1.86084 11.9779 1.88739 12.8037 2.27924L24.1169 7.65297C23.932 8.08144 23.829 8.55339 23.829 9.04961V9.7857C22.5994 9.078 20.6516 8.02971 18.5358 7.17414C13.5279 5.14853 10.1839 5.25747 8.59729 7.49733C8.30158 7.91435 8.40046 8.49251 8.81794 8.78823C9.23542 9.08395 9.81312 8.98507 10.1084 8.56758C12.1834 5.63834 20.5793 9.92944 23.829 11.9354V16.3295L9.08893 12.2718C8.20774 12.0292 7.49316 11.4479 7.07706 10.6349ZM24.2446 18.3647C24.7056 19.2271 25.5131 19.8776 26.4804 20.128C22.1494 26.1706 19.168 33.1135 17.7695 40.4112C16.7858 38.9738 15.8662 37.4673 15.0243 35.9114C14.9012 35.6834 14.6888 35.5177 14.4375 35.4541C14.1866 35.3904 13.9207 35.4348 13.7041 35.5763C12.1619 36.582 10.6517 37.6852 9.19331 38.8699C10.6952 30.9863 13.7984 23.3846 18.2484 16.714L24.2446 18.3647ZM6.0805 26.3665H11.0134C9.05964 31.0856 7.68131 36.0446 6.94156 41.0883C6.88525 41.4737 7.07568 41.8532 7.41855 42.0377C7.76187 42.2221 8.18347 42.1727 8.47416 41.9136C10.1981 40.3755 12.015 38.9546 13.8868 37.6802C15.0042 39.6541 16.2415 41.5442 17.5732 43.3107C17.7508 43.5465 18.0264 43.6797 18.3125 43.6797C18.3889 43.6797 18.4658 43.6701 18.5418 43.6504C18.9039 43.5579 19.1744 43.2572 19.2284 42.8877C20.046 37.3062 21.8217 31.9036 24.4442 26.9355V58.2248H6.0805V26.3665ZM26.2963 58.2248V26.3665H33.7039V58.2248H26.2963ZM46.2961 35.5763C46.0796 35.4348 45.8132 35.3909 45.5628 35.4545C45.3119 35.5182 45.0991 35.6839 44.9759 35.9114C44.1341 37.4673 43.2144 38.9743 42.2307 40.4112C40.8322 33.113 37.8508 26.1706 33.5194 20.1285C34.4867 19.8785 35.2946 19.2276 35.7556 18.3647L41.7533 16.7135C46.2023 23.3855 49.3055 30.9872 50.8074 38.8699C49.3485 37.6852 47.8383 36.582 46.2961 35.5763ZM58.1481 24.5144H48.1853C46.8807 21.629 45.3568 18.8445 43.6296 16.1972L51.403 14.0571C51.5087 14.0278 51.6131 13.9944 51.7161 13.9582H58.1481V24.5144Z" fill="#333333"></path>
                        <rect x="25" y="6.3999" width="10" height="13" rx="4" stroke="#4414DA" stroke-width="2"></rect>
                        </g>
                        <defs>
                        <clipPath id="clip0">
                        <rect width="60" height="60" fill="white"></rect>
                        </clipPath>
                        </defs>
                    </svg>