<svg class="tabs-list__icon" width="60" height="60" viewBox="0 0 60 60" fill="none" xmlns="http://www.w3.org/2000/svg">
                      <g clip-path="url(#clip0)">
                        <path d="M29.6469 8.62231H7.56055C7.07516 8.62231 6.68164 9.01583 6.68164 9.50122C6.68164 9.98661 7.07516 10.3801 7.56055 10.3801H29.6469C30.1323 10.3801 30.5258 9.98661 30.5258 9.50122C30.5258 9.01583 30.1323 8.62231 29.6469 8.62231Z" fill="#333333"></path>
                        <path d="M30.5258 15.5396C30.5258 15.0542 30.1323 14.6606 29.6469 14.6606H7.56055C7.07516 14.6606 6.68164 15.0542 6.68164 15.5396C6.68164 16.0249 7.07516 16.4185 7.56055 16.4185H29.6469C30.1323 16.4185 30.5258 16.0249 30.5258 15.5396Z" fill="#333333"></path>
                        <path d="M7.56055 20.699C7.07516 20.699 6.68164 21.0925 6.68164 21.5779C6.68164 22.0633 7.07516 22.4568 7.56055 22.4568H18.6037C19.0891 22.4568 19.4826 22.0633 19.4826 21.5779C19.4826 21.0925 19.0891 20.699 18.6037 20.699H7.56055Z" fill="#333333"></path>
                        <path d="M16.6116 58.2422H3.80152C2.75 58.2422 1.89453 57.3867 1.89453 56.3352V3.6648C1.89453 2.61328 2.75 1.75781 3.80152 1.75781C36.5234 1.76719 34.5346 1.73754 34.8276 1.77973V9.12926C34.8276 10.8375 36.2173 12.2272 37.9256 12.2272H45.2751C45.2881 12.3177 45.297 12.4092 45.297 12.5024V17.5977C45.297 18.0831 45.6906 18.4766 46.1759 18.4766C46.6613 18.4766 47.0548 18.0831 47.0548 17.5977V12.5024C47.0548 11.6332 46.7537 10.8105 46.2016 10.1523C46.2006 10.151 46.1994 10.1497 46.1983 10.1484C46.1305 10.0678 37.2545 1.14902 36.9054 0.855586C36.9045 0.854883 36.9038 0.85418 36.903 0.853594C36.2448 0.301289 35.422 0 34.5526 0H3.80152C1.78074 0 0.136719 1.64402 0.136719 3.6648V56.3351C0.136719 58.356 1.78074 60 3.80152 60H16.6116C17.097 60 17.4905 59.6065 17.4905 59.1211C17.4905 58.6357 17.097 58.2422 16.6116 58.2422ZM36.5854 9.12926V3.0007L44.054 10.4693H37.9256C37.1867 10.4693 36.5854 9.86812 36.5854 9.12926Z" fill="#333333"></path>
                        <path fill-rule="evenodd" clip-rule="evenodd" d="M59.307 32.7475C59.318 32.7653 59.3284 32.7832 59.338 32.8015C59.6715 33.3723 59.8637 34.0354 59.8636 34.743V56.1393C59.8636 58.2627 58.1347 60 56.0029 60H22.3003C20.1648 60 18.4395 58.2589 18.4395 56.1393V34.743C18.4395 32.6011 20.1904 30.8821 22.3003 30.8821H25.3808C26.3081 24.1107 32.1296 18.8767 39.1516 18.8767C46.1736 18.8767 51.9952 24.1108 52.9225 30.8821H56.003C57.4021 30.8821 58.6297 31.6302 59.307 32.7475ZM57.9098 57.0204C58.0344 56.752 58.1059 56.4542 58.1059 56.1393C58.1054 53.5998 58.1056 50.6371 58.1057 47.7365C58.1061 41.0683 58.1064 34.7283 58.0992 34.6124L43.9888 44.5974L57.9098 57.0204ZM57.2545 33.0569C56.9043 32.7962 56.4721 32.6399 56.003 32.6399L53.0505 32.64C53.051 32.6859 53.0523 32.7314 53.0523 32.7774C53.0523 33.9892 52.8911 35.1976 52.5805 36.3644L57.2545 33.0569ZM20.1974 56.1392C20.1974 56.4541 20.2689 56.7518 20.3934 57.0203L34.3145 44.5973L20.2039 34.6123C20.1969 34.7279 20.1972 41.0365 20.1975 47.6864C20.1977 50.6029 20.1978 53.5851 20.1974 56.1392ZM25.2521 32.6933C25.2524 32.6755 25.2527 32.6577 25.2529 32.6399L22.3003 32.6398C21.8312 32.6398 21.3989 32.7961 21.0488 33.0568L25.7228 36.3643C25.4122 35.1977 25.2511 33.9892 25.2511 32.7773C25.2511 32.7492 25.2516 32.7213 25.2521 32.6933ZM21.7492 58.1664C21.9252 58.2143 22.1094 58.2422 22.3004 58.2422H56.0031C56.194 58.2422 56.3782 58.2143 56.5542 58.1664L40.8432 44.1461C39.8789 43.2855 38.4245 43.2855 37.4602 44.1461L21.7492 58.1664ZM51.2944 32.7773C51.2944 26.0818 45.8471 20.6345 39.1516 20.6345C32.4561 20.6345 27.009 26.0818 27.0089 32.7774C27.0089 34.6729 27.4335 36.4845 28.2689 38.1661L35.6603 43.3964L36.2897 42.8348C36.9977 42.2028 37.8621 41.8456 38.747 41.7621L39.5563 41.762C40.4412 41.8455 41.3055 42.2028 42.0136 42.8346L42.643 43.3963L50.0343 38.166C50.8697 36.4843 51.2944 34.6728 51.2944 32.7773Z" fill="#333333"></path>
                        <path fill-rule="evenodd" clip-rule="evenodd" d="M39.8275 41.7619C40.1091 41.6154 40.3017 41.3215 40.3017 40.9821V40.0345C44.0231 39.2774 45.0321 33.8574 41.0216 32.4396C40.785 32.356 40.5431 32.2684 40.3017 32.1774V28.2666C40.8922 28.4185 41.2433 28.7155 41.2747 28.7431C41.6318 29.0662 42.1832 29.0418 42.5104 28.6871C42.8394 28.3302 42.817 27.7742 42.4602 27.4451C42.4123 27.4009 41.6122 26.6801 40.3017 26.4738V25.6914C40.3017 25.206 39.9082 24.8125 39.4228 24.8125C38.9374 24.8125 38.5439 25.206 38.5439 25.6914V26.5404C38.4272 26.5668 38.3091 26.5964 38.1884 26.6329C35.617 27.4074 34.9463 30.8979 36.8154 32.3639C37.2547 32.7086 37.8 33.0243 38.5439 33.3569V38.3443C37.8926 38.2923 37.4726 38.1289 36.7606 37.6632C36.3544 37.3974 35.8096 37.5113 35.5439 37.9175C35.2781 38.3237 35.392 38.8684 35.7982 39.1341C36.8693 39.8348 37.6045 40.0491 38.5439 40.1058V40.9823C38.5439 41.3216 38.7366 41.6155 39.0182 41.762L39.8275 41.7619ZM40.4358 34.097C40.4075 34.087 40.3801 34.0772 40.3528 34.0673C40.3359 34.0612 40.3189 34.0551 40.3017 34.049V38.2025C42.0615 37.5279 42.5622 34.8487 40.4358 34.097ZM37.9002 30.9808C38.0842 31.1252 38.3025 31.2641 38.5439 31.3977V28.3711C37.4431 28.8304 37.2041 30.4349 37.9002 30.9808Z" fill="#4414DA"></path>
                        </g>
                        <defs>
                        <clipPath id="clip0">
                        <rect width="60" height="60" fill="white"></rect>
                        </clipPath>
                        </defs>
                    </svg>